<?xml version="1.0" encoding="utf-8"?>
<!-- Generator: Adobe Illustrator 26.1.0, SVG Export Plug-In . SVG Version: 6.00 Build 0)  -->
<svg version="1.1" xmlns="http://www.w3.org/2000/svg" xmlns:xlink="http://www.w3.org/1999/xlink" x="0px" y="0px"
	 viewBox="0 0 2428 648" style="enable-background:new 0 0 2428 648;" xml:space="preserve">
<style type="text/css">
	.st0{display:none;}
	.st1{display:inline;}
	.st2{display:none;fill:#FFFFFF;}
	.st3{fill:#990033;}
	.st4{fill:#7F0033;}
	.st5{fill:#0099CC;}
	.st6{fill:#0079CC;}
	.st7{fill:#983300;}
	.st8{fill:#A85900;}
	.st9{fill:#669933;}
	.st10{fill:#66C133;}
	.st11{font-family:'Oswald-Medium';}
	.st12{font-size:467.3914px;}
	.st13{letter-spacing:-32.6;}
	.st14{fill:#4D4D4D;}
</style>
<g id="Layer_2" class="st0">
	<g class="st1">
		<path d="M818,647c0,0-287.46,0.1-523.07,0.1c-11.03-53.32-9.7-52.47,40.13-68.55c31.6-10.2,64.58-22.64,90.6-42.4
			c92.22-70.05,73.05-209.5-34.54-251.39c-33.97-13.23-72.21-20.55-108.69-21.35C157.47,260.65,69.99,204.45,18.74,90.97
			C16.01,84.92,8,64.62,8,59.96c118.63,0,237.27,0,355.7,0c3.08-10.48,5.65-19.22,8.21-27.96C584.2,32,818,32,818,32V647z"/>
		<path class="st2" d="M174,65.94c3.62,5.66,8.01,10.98,10.74,17.04c51.24,113.48,138.72,169.68,263.68,172.43
			c36.49,0.8,74.73,8.12,108.69,21.35c107.59,41.89,126.76,181.34,34.54,251.39c-26.02,19.76-59,32.2-90.6,42.4
			c-49.83,16.09-51.16,15.23-40.13,68.55c-95.26,0-190.51,0-286.93,0C174,448.05,174,256.99,174,65.94z"/>
		<path class="st2" d="M1167.76,639.1c1.33-19.22,2.66-38.44,3.88-56.07c-27.75-8.81-51.63-14.37-73.87-23.8
			c-88.42-37.51-130.84-107.39-139.62-200.83c-8.49-90.38,31.43-155.2,106.19-200.76c25.68-15.65,53.29-29.37,81.72-38.9
			c23.06-7.73,31.88-18.61,29.09-42.4c-2.03-17.23-0.39-34.89-0.39-52.35c2.33,3.49,6.7,6.99,6.71,10.49
			c0.33,195.71,0.31,391.43,0.25,587.14C1181.71,630.91,1185.21,643.49,1167.76,639.1z"/>
		<path class="st2" d="M537.91,24c-2.57,8.74-5.13,17.48-8.21,27.96c-118.43,0-237.07,0-355.7,0c0-9.32,0-18.64,0-27.96
			C295.3,24,416.61,24,537.91,24z"/>
	</g>
	<path class="st1" d="M1241,211"/>
</g>
<g id="Layer_2_copy">
</g>
<g id="Layer_5">
	<g id="Layer_6" class="st0">
	</g>
	<g>
		<path class="st0" d="M818,32c0,0-233.8,0-446.09,0c-2.57,8.74-5.13,17.48-8.21,27.96c-118.43,0-237.07,0-355.7,0
			c0,4.66,8.01,24.96,10.74,31.02C69.99,204.45,157.47,260.65,282.42,263.4c36.49,0.8,74.73,8.12,108.69,21.35
			c107.59,41.89,126.76,181.34,34.54,251.39c-26.02,19.76-59,32.2-90.6,42.4c-49.83,16.09-51.16,15.23-40.13,68.55
			c228.71,0,506.27-0.09,522.33-0.1L590,340L818,32z"/>
		<g>
			<g>
				<path d="M590,340L818,32H378.73l-9.69,24H2.24C-3.75,56,0.72,95.36,40,129c56.85,48.7,265.44,147.13,310.01,160.15
					c14.34,4.26,26.35,14.03,33.25,27.28c21.08,40.07,51.11,101.65,51.5,115.68l0.54,20.46c0.08,4.88,3.13,39.3-1.36,41.16
					l-176.08,52.02c-7.75,3.18-12.79,10.62-12.79,18.99v1.01c0,27.21-25.22,20.62-51.89,25.96l-21.39,4.26
					c-5.66,1.16-9.69,6.12-9.69,11.86v23.54c0,9.17,7.44,16.61,16.61,16.61H818l-0.74-1L590,340z"/>
			</g>
			<g>
				<polygon class="st3" points="820.52,37 903.3,37 682.86,334.79 599.94,334.98 				"/>
				<path class="st4" d="M893.38,42l-52.93,71.5l-30.49,41.19L680.34,329.8l-70.46,0.16L823.04,42H893.38 M913.23,32h-4.44H818
					L590,340l95.29-0.21l0.05,0.06L818,160.64l30.49-41.19l55.61-75.13l8.03-10.85L913.23,32L913.23,32z"/>
			</g>
			<g>
				<polygon class="st5" points="596.21,339.99 637.06,284.36 681.35,342.87 903.38,642.81 820.52,642.99 				"/>
				<path class="st6" d="M637.12,292.73l40.21,53.12l36.73,49.62l82.69,111.7l13.21,17.85l7.76,10.49l75.75,102.33l-2.04,0
					l-68.41,0.15L602.42,339.98L637.12,292.73 M637,276l-47,64l227.26,307l0.74,1l73.46-0.16l21.83-0.05l-87.53-118.24L818,519.06
					l-13.21-17.85l-82.69-111.7l-36.77-49.67L637,276L637,276z"/>
			</g>
		</g>
		<g>
			<polygon class="st7" points="2114.91,642.81 2335.52,344.79 2418.38,344.98 2197.77,642.99 			"/>
			<path class="st8" d="M2338.03,349.8l70.45,0.16l-213.22,288.03l-70.45-0.16l83.52-112.82L2338.03,349.8 M2333,339.79l-0.05,0.06
				l-132.66,179.21L2105,647.79l95.29,0.21l0.74-1l227.26-307L2333,339.79L2333,339.79z"/>
		</g>
		<g>
			<polygon class="st9" points="2337.01,336.92 2114.99,37 2197.77,37 2422.07,339.99 2380.06,396.54 			"/>
			<path class="st10" d="M2195.25,42l220.59,297.99l-35.73,48.09L2341.06,334l-0.03-0.05l-0.04-0.05l-132.66-179.21L2124.91,42
				H2195.25 M2200.29,32h-95.23l95.23,128.64l132.66,179.21L2380,405l48.29-65L2200.29,32L2200.29,32z"/>
		</g>
	</g>
	<path d="M485,464"/>
</g>
<g id="Layer_3">
	<text transform="matrix(0.8282 0 0 1 817.2754 561.209)"><tspan x="0" y="0" class="st11 st12 st13">WEB</tspan><tspan x="695" y="0" class="st14 st11 st12 st13">ANVIL</tspan></text>
</g>
<g id="Layer_7">
	<g>
		<path d="M1786.83,3.94l24.55,62.92c0.81,1.13,0.92,2.62,0.31,3.86l-11.56,23.39c-0.92,1.87-0.16,4.14,1.71,5.06l0,0
			c1.87,0.92,2.64,3.19,1.71,5.06l-14.23,28.8c-0.92,1.87-3.19,2.64-5.06,1.71l0,0c-1.87-0.92-4.14-0.16-5.06,1.71l-17.58,35.57
			c-0.92,1.87-3.19,2.64-5.06,1.71l-45.74-22.61c-1.87-0.92-2.64-3.19-1.71-5.06l17.58-35.57c0.92-1.87,0.16-4.14-1.71-5.06
			L1586.06,36.8c-1.87-0.92-2.64-3.19-1.71-5.06l14.23-28.8c0.92-1.87,3.19-2.64,5.06-1.71l138.91,68.65
			c1.87,0.92,4.14,0.16,5.06-1.71l32.15-65.05C1781.33-0.07,1786.03,0.48,1786.83,3.94z"/>
	</g>
	<polygon points="1762.92,181.08 1803.7,132.14 1811.86,144.37 	"/>
	<polygon points="1784.67,181.08 1811.86,165.59 1816.73,167.29 	"/>
	<polygon points="1703.05,148.73 1750.68,180 1698.75,159.61 	"/>
	<polygon points="1732.73,180 1705,174.83 1705,180 	"/>
</g>
</svg>
