<?xml version="1.0" encoding="utf-8"?>
<!-- Generator: Adobe Illustrator 26.1.0, SVG Export Plug-In . SVG Version: 6.00 Build 0)  -->
<svg version="1.1" xmlns="http://www.w3.org/2000/svg" xmlns:xlink="http://www.w3.org/1999/xlink" x="0px" y="0px"
	 viewBox="0 0 445 128" style="enable-background:new 0 0 445 128;" xml:space="preserve">
<style type="text/css">
	.st0{display:none;}
	.st1{fill:#BB0000;}
	.st2{font-family:'Oswald-Bold';}
	.st3{font-size:98.1548px;}
	.st4{letter-spacing:-7.09;}
	.st5{display:inline;fill:#BB0000;}
	.st6{display:inline;}
	.st7{fill:#1A1A1A;}
	.st8{display:inline;fill:#FF0000;}
	.st9{display:inline;fill:#4D4D4D;}
	.st10{fill:none;stroke:#000000;stroke-width:6;stroke-miterlimit:10;}
	.st11{display:inline;fill:none;stroke:#000000;stroke-width:6;stroke-miterlimit:10;}
	.st12{display:none;fill:#BB0000;}
	.st13{display:none;fill:#1A1A1A;}
	.st14{fill:#FFFFFF;}
	.st15{fill:none;}
</style>
<g id="Layer_2" class="st0">
	<path d="M272.22,48l-148.61,0c-1.53,0-2.77,1.25-2.77,2.78v7.3c3.86,4.77,29.23,8.29,28.79,20.64l0.02,1.96
		c0.02,1.92,1,3.7,2.62,4.73l12.87,8.22c2,1.28,3.24,3.47,3.3,5.84l0.07,2.64c0.02,0.63-0.36,1.21-0.95,1.44l-17.13,6.85
		c-1,0.4-1.66,1.37-1.66,2.45v0.01c0,3.56-2.55,6.61-6.05,7.24l-3.7,0.67c-0.74,0.13-1.28,0.78-1.28,1.53v3.6
		c0,0.86,0.7,1.56,1.56,1.56h97.22c0.86,0,1.56-0.7,1.56-1.56v-3.62c0-0.74-0.52-1.38-1.25-1.53l-2.77-0.55
		c-3.44-0.69-5.92-3.71-5.92-7.22v-0.14c0-1.07-0.65-2.04-1.65-2.44l-16.91-6.85c-0.58-0.24-0.96-0.81-0.94-1.44l0.07-2.64
		c0.05-1.81,5.73-12.85,8.44-18.02c0.9-1.71,2.44-2.97,4.29-3.52c5.76-1.68,18.51-5.41,23.03-6.7c0.94-0.27,1.83-0.7,2.63-1.27
		l25.91-18.54C274.69,50.6,274.11,48,272.22,48z"/>
	<text transform="matrix(0.9869 0 0 1 238.6016 127.8155)" class="st1 st2 st3 st4">ANVIL</text>
	<g>
		<path class="st5" d="M240.64,127.83l14.82-79.5h19.76l14.63,79.5h-15.98l-2.62-16.78h-11.53l-2.71,16.78H240.64z M261.27,100.54
			h8.33l-4.17-31.02L261.27,100.54z"/>
		<path class="st5" d="M290.62,127.83v-79.5h12.21l16.08,38.28V48.32h14.34v79.5h-11.72L305.44,86.6v41.22H290.62z"/>
		<path class="st5" d="M348.26,127.83l-14.14-79.5h14.82l8.43,53.98l7.85-53.98h15.69l-14.34,79.5H348.26z"/>
		<path class="st5" d="M381.68,127.83v-79.5h17.34v79.5H381.68z"/>
		<path class="st5" d="M403.57,127.83v-79.5h17.34v67.63h18.02v11.88H403.57z"/>
	</g>
	<g class="st6">
		<path class="st1" d="M275.94,52.26l-24.51,17.67l-10.1,54.2l-0.69,3.7h16.37l2.71-16.79h11.53l2.61,16.79h15.99L275.94,52.26z
			 M261.27,100.54l4.16-31.01l4.17,31.01H261.27z"/>
		<path class="st1" d="M320.91,48.32V86.6l-16.08-38.28h-12.21v79.51h14.82V86.6l16.08,41.23h11.72V48.32H320.91z"/>
		<path class="st1" d="M369.21,48.32l-7.85,53.99l-8.43-53.99h-14.82l14.15,79.51h18.3l14.34-79.51H369.21z"/>
		<path class="st1" d="M387.68,48.32v79.51h17.33V48.32H387.68z"/>
		<path class="st1" d="M426.91,115.95V48.32h-17.34v79.51h35.35v-11.88H426.91z"/>
	</g>
	<path class="st7" d="M274.99,51.45l-25.91,18.67c-0.8,0.57-1.69,1.01-2.63,1.28c-4.52,1.3-17.28,5.05-23.03,6.74
		c-1.85,0.55-3.4,1.82-4.29,3.54c-2.72,5.2-8.4,16.32-8.45,18.14l-0.07,2.66c-0.01,0.63,0.37,1.21,0.95,1.45l16.91,6.89
		c1,0.41,1.65,1.38,1.65,2.47v0.13c0,3.53,2.48,6.57,5.92,7.27l2.76,0.55c0.73,0.15,1.25,0.8,1.25,1.54v3.64
		c0,0.87-0.69,1.57-1.55,1.57h-59.08c1.94-0.89,3.65-2.03,5.11-3.44c2.09-2,3.69-4.58,4.8-7.73c1.11-3.14,1.67-6.9,1.67-11.24
		c0-4.02-0.83-7.35-1.67-10.27C187,87.26,181,85.25,181,85.25s5-4.03,6.01-8.23c0.59-2.45,1.46-5.17,1.46-8.56
		c0-4.7-0.69-8.49-2.07-11.36c-1.38-2.87-3.28-5.08-5.71-6.64c-1.64-1.05-3.44-1.87-5.4-2.46h98.93
		C276.11,48,276.69,50.62,274.99,51.45z"/>
	<g>
		<path class="st8" d="M86.94,46.48l-4.95,48.31l-6.47-48.21H63.5L57.33,95.1l-4.85-48.62H37.13l9.9,83.44h15.96l6.57-50.37
			l6.97,50.37h15.76l9.8-83.44H86.94z"/>
		<path class="st8" d="M121.49,117.45V92.53h14.25V79.75h-14.25v-20.7h18.69V46.48H103.4v83.44h36.98v-12.47H121.49z"/>
		<path class="st8" d="M186.06,94.44c-1.07-2.7-2.63-4.86-4.7-6.47s-4.62-2.62-7.65-3.01c2.39-0.46,4.44-1.35,6.15-2.67
			c1.71-1.32,3.03-3.08,3.97-5.29c0.94-2.2,1.41-4.92,1.41-8.14c0-4.48-0.67-8.09-1.99-10.82s-3.15-4.84-5.47-6.32
			c-2.33-1.48-4.99-2.48-7.99-3.01c-2.07-0.36-4.22-0.6-6.45-0.71h11.95c-0.94-0.29-1.92-0.52-2.93-0.7
			c-3.13-0.55-6.45-0.82-9.95-0.82h-21.32v83.44h25.16c3.97,0,7.49-0.48,10.56-1.44c0.91-0.29,1.78-0.62,2.61-1.01H170
			c1.43-0.22,2.78-0.53,4.05-0.93c2.94-0.92,5.41-2.34,7.41-4.25c2-1.91,3.53-4.36,4.6-7.36c1.06-2.99,1.6-6.57,1.6-10.72
			C187.66,100.4,187.12,97.14,186.06,94.44z M159.17,58.84h3.14c2.29,0,4.19,0.38,5.7,1.13c1.52,0.76,2.66,1.88,3.44,3.35
			c0.77,1.48,1.16,3.32,1.16,5.51c0,2.34-0.25,4.33-0.76,5.98c-0.5,1.65-1.46,2.9-2.88,3.76c-1.41,0.86-3.5,1.28-6.26,1.28h-3.54
			V58.84z M171.25,113.95c-1.52,2.06-4.26,3.09-8.24,3.09h-3.84V92.01h3.74c2.63,0,4.72,0.43,6.27,1.29s2.66,2.21,3.33,4.07
			c0.67,1.85,1.01,4.36,1.01,7.52C173.52,108.87,172.76,111.89,171.25,113.95z"/>
	</g>
	<g>
		<path class="st9" d="M273.22,48l-148.61,0c-1.53,0-2.77,1.25-2.77,2.78v7.3c3.86,4.77,29.23,8.29,28.79,20.64l0.02,1.96
			c0.02,1.92,1,3.7,2.62,4.73l12.87,8.22c2,1.28,3.24,3.47,3.3,5.84l0.07,2.64c0.02,0.63-0.36,1.21-0.95,1.44l-17.13,6.85
			c-1,0.4-1.66,1.37-1.66,2.45v0.01c0,3.56-2.55,6.61-6.05,7.24l-3.7,0.67c-0.74,0.13-1.28,0.78-1.28,1.53v3.6
			c0,0.86,0.7,1.56,1.56,1.56h97.22c0.86,0,1.56-0.7,1.56-1.56v-3.62c0-0.74-0.52-1.38-1.25-1.53l-2.77-0.55
			c-3.44-0.69-5.92-3.71-5.92-7.22v-0.14c0-1.07-0.65-2.04-1.65-2.44l-16.91-6.85c-0.58-0.24-0.96-0.81-0.94-1.44l0.07-2.64
			c0.05-1.81,5.73-12.85,8.44-18.02c0.9-1.71,2.44-2.97,4.29-3.52c5.76-1.68,18.51-5.41,23.03-6.7c0.94-0.27,1.83-0.7,2.63-1.27
			l25.91-18.54C275.69,50.6,275.11,48,273.22,48z"/>
	</g>
	<g class="st6">
		<path d="M273.99,51.43l-25.91,18.55c-0.8,0.57-1.69,1-2.63,1.27c-4.52,1.29-17.28,5.02-23.03,6.7c-1.85,0.55-3.4,1.81-4.29,3.52
			c-2.72,5.17-8.4,16.21-8.45,18.02l-0.07,2.64c-0.01,0.63,0.37,1.2,0.95,1.44l16.91,6.84c1,0.41,1.65,1.37,1.65,2.45v0.13
			c0,3.51,2.48,6.53,5.92,7.22l2.76,0.55c0.73,0.15,1.25,0.79,1.25,1.53v3.04c0,1.18-0.96,2.14-2.14,2.14h-91.8
			c-0.58,0-0.81-0.76-0.32-1.07c1.06-0.67,2.03-1.44,2.91-2.31c2.03-2.01,3.59-4.58,4.68-7.73c0.67-1.95,1.13-4.12,1.38-6.54
			c0.02-0.21,0.16-0.4,0.36-0.48l14.43-5.78c0.59-0.23,0.97-0.81,0.95-1.44l-0.07-2.64c-0.06-2.38-1.29-4.56-3.29-5.84l-12.87-8.22
			c-1.62-1.04-2.61-2.82-2.63-4.74l-0.01-1.95c0.03-0.95,0.91-7.6,0.91-10.74c0-4.71-0.67-8.49-2.02-11.36
			c-1.34-2.87-3.2-5.08-5.56-6.64c-0.49-0.32-0.99-0.62-1.51-0.9c-0.53-0.28-0.33-1.09,0.27-1.09h130.5
			C275.11,48,275.69,50.6,273.99,51.43z"/>
	</g>
	<g class="st6">
		<path d="M273.99,51.43l-25.91,18.55c-0.8,0.57-1.69,1-2.63,1.27c-4.52,1.29-17.28,5.02-23.03,6.7c-1.85,0.55-3.4,1.81-4.29,3.52
			c-2.72,5.17-8.4,16.21-8.45,18.02l-0.07,2.64c-0.01,0.63,0.37,1.2,0.95,1.44l16.91,6.84c1,0.41,1.65,1.37,1.65,2.45v0.13
			c0,3.51,2.48,6.53,5.92,7.22l2.76,0.55c0.73,0.15,1.25,0.79,1.25,1.53v3.04c0,1.18-0.96,2.14-2.14,2.14h-91.8
			c-0.58,0-0.81-0.76-0.32-1.07c1.06-0.67,2.03-1.44,2.91-2.31c2.03-2.01,3.59-4.58,4.68-7.73c0.67-1.95,1.13-4.12,1.38-6.54
			c0.02-0.21,0.16-0.4,0.36-0.48l14.43-5.78c0.59-0.23,0.97-0.81,0.95-1.44l-0.07-2.64c-0.06-2.38-1.29-4.56-3.29-5.84l-12.87-8.22
			c-1.62-1.04-2.61-2.82-2.63-4.74l-0.01-1.95c0.03-0.95,0.91-7.6,0.91-10.74c0-4.71-0.67-8.49-2.02-11.36
			c-1.34-2.87-3.2-5.08-5.56-6.64c-0.49-0.32-0.99-0.62-1.51-0.9c-0.53-0.28-0.33-1.09,0.27-1.09h130.5
			C275.11,48,275.69,50.6,273.99,51.43z"/>
	</g>
	<g class="st6">
		<path d="M9.62,127.92l-9.49-80h14.72l4.65,46.62l5.91-46.52h11.53l6.2,46.22l4.75-46.32h14.53l-9.4,80H37.91l-6.68-48.3l-6.3,48.3
			H9.62z"/>
		<path d="M65.67,127.92v-80h35.26v12.05H83.01v19.85h13.66v12.25H83.01v23.9h18.11v11.95H65.67z"/>
		<path d="M103.8,127.92v-80h20.44c3.36,0,6.54,0.26,9.54,0.79c3,0.53,5.67,1.53,7.99,3.01c2.32,1.48,4.15,3.59,5.47,6.32
			c1.32,2.73,1.99,6.34,1.99,10.81c0,3.23-0.47,5.94-1.4,8.15c-0.94,2.21-2.26,3.97-3.97,5.28c-1.71,1.32-3.76,2.21-6.15,2.67
			c3.04,0.4,5.59,1.4,7.65,3.01c2.07,1.61,3.63,3.77,4.7,6.47c1.07,2.7,1.6,5.96,1.6,9.78c0,4.15-0.53,7.72-1.6,10.72
			s-2.6,5.45-4.6,7.36c-2,1.91-4.47,3.33-7.41,4.25c-2.94,0.92-6.31,1.38-10.12,1.38H103.8z M121.14,79.92h3.39
			c2.65,0,4.65-0.41,6.01-1.23c1.36-0.82,2.28-2.02,2.76-3.6s0.73-3.49,0.73-5.73c0-2.11-0.37-3.87-1.11-5.28
			c-0.74-1.42-1.84-2.48-3.29-3.21c-1.45-0.72-3.28-1.09-5.47-1.09h-3V79.92z M121.14,115.57h3.68c3.81,0,6.44-0.99,7.89-2.96
			c1.45-1.98,2.18-4.87,2.18-8.69c0-3.03-0.32-5.43-0.97-7.21c-0.65-1.78-1.71-3.08-3.2-3.9c-1.49-0.82-3.49-1.23-6.01-1.23h-3.58
			V115.57z"/>
	</g>
</g>
<g id="Layer_6" class="st0">
	<path class="st10" d="M448.2,139H-5.2c-3.76,0-6.8-3.04-6.8-6.8V-1.2C-12-4.96-8.96-8-5.2-8c73.62,0,147.24,0,220.86,0
		c77.51,0,155.03,0,232.54,0c0.45,0,2.86,0.05,4.81,1.99C454.24-4.78,455-3.08,455-1.2v133.4C455,135.96,451.96,139,448.2,139z"/>
	<path class="st11" d="M448.2,139H-5.2c-3.76,0-6.8-3.04-6.8-6.8V40.8c0-3.76,3.04-6.8,6.8-6.8h177h30.8h13.15
		c1.4,0,2.69-0.73,3.41-1.93v0c0.99-1.66,0.37-3.81-1.35-4.69l-27.63-14c-2.22-1.13-3.11-3.85-1.97-6.07l6.72-13.11
		c1.14-2.23,3.88-3.09,6.09-1.93l27.52,14.45c2.15,1.13,4.81,0.35,6-1.76l7.58-13.37c1.9-3.36,6.87-2.92,8.16,0.72l13.76,38.98
		c0.57,1.62,2.11,2.71,3.83,2.71H448.2c0.45,0,2.86,0.05,4.81,1.99c1.23,1.23,1.99,2.93,1.99,4.81v91.4
		C455,135.96,451.96,139,448.2,139z"/>
	<path class="st11" d="M300-81"/>
</g>
<g id="Layer_2_copy_2">
	<path class="st0" d="M272.22,48l-148.61,0c-1.53,0-2.77,1.25-2.77,2.78v7.3c3.86,4.77,29.23,8.29,28.79,20.64l0.02,1.96
		c0.02,1.92,1,3.7,2.62,4.73l12.87,8.22c2,1.28,3.24,3.47,3.3,5.84l0.07,2.64c0.02,0.63-0.36,1.21-0.95,1.44l-17.13,6.85
		c-1,0.4-1.66,1.37-1.66,2.45v0.01c0,3.56-2.55,6.61-6.05,7.24l-3.7,0.67c-0.74,0.13-1.28,0.78-1.28,1.53v3.6
		c0,0.86,0.7,1.56,1.56,1.56h97.22c0.86,0,1.56-0.7,1.56-1.56v-3.62c0-0.74-0.52-1.38-1.25-1.53l-2.77-0.55
		c-3.44-0.69-5.92-3.71-5.92-7.22v-0.14c0-1.07-0.65-2.04-1.65-2.44l-16.91-6.85c-0.58-0.24-0.96-0.81-0.94-1.44l0.07-2.64
		c0.05-1.81,5.73-12.85,8.44-18.02c0.9-1.71,2.44-2.97,4.29-3.52c5.76-1.68,18.51-5.41,23.03-6.7c0.94-0.27,1.83-0.7,2.63-1.27
		l25.91-18.54C274.69,50.6,274.11,48,272.22,48z"/>
	<text transform="matrix(0.9869 0 0 1 238.6016 127.8155)" class="st12 st2 st3 st4">ANVIL</text>
	<g class="st0">
		<path class="st5" d="M240.64,127.83l14.82-79.5h19.76l14.63,79.5h-15.98l-2.62-16.78h-11.53l-2.71,16.78H240.64z M261.27,100.54
			h8.33l-4.17-31.02L261.27,100.54z"/>
		<path class="st5" d="M290.62,127.83v-79.5h12.21l16.08,38.28V48.32h14.34v79.5h-11.72L305.44,86.6v41.22H290.62z"/>
		<path class="st5" d="M348.26,127.83l-14.14-79.5h14.82l8.43,53.98l7.85-53.98h15.69l-14.34,79.5H348.26z"/>
		<path class="st5" d="M381.68,127.83v-79.5h17.34v79.5H381.68z"/>
		<path class="st5" d="M403.57,127.83v-79.5h17.34v67.63h18.02v11.88H403.57z"/>
	</g>
	<g>
		<path class="st1" d="M275.94,52.26l-24.51,17.67l-10.1,54.2l-0.69,3.7h16.37l2.71-16.79h11.53l2.61,16.79h15.99L275.94,52.26z
			 M261.27,100.54l4.16-31.01l4.17,31.01H261.27z"/>
		<path class="st1" d="M320.91,48.32V86.6l-16.08-38.28h-12.21v79.51h14.82V86.6l16.08,41.23h11.72V48.32H320.91z"/>
		<path class="st1" d="M369.21,48.32l-7.85,53.99l-8.43-53.99h-14.82l14.15,79.51h18.3l14.34-79.51H369.21z"/>
		<path class="st1" d="M387.68,48.32v79.51h17.33V48.32H387.68z"/>
		<path class="st1" d="M426.91,115.95V48.32h-17.34v79.51h35.35v-11.88H426.91z"/>
	</g>
	<path class="st13" d="M274.99,51.45l-25.91,18.67c-0.8,0.57-1.69,1.01-2.63,1.28c-4.52,1.3-17.28,5.05-23.03,6.74
		c-1.85,0.55-3.4,1.82-4.29,3.54c-2.72,5.2-8.4,16.32-8.45,18.14l-0.07,2.66c-0.01,0.63,0.37,1.21,0.95,1.45l16.91,6.89
		c1,0.41,1.65,1.38,1.65,2.47v0.13c0,3.53,2.48,6.57,5.92,7.27l2.76,0.55c0.73,0.15,1.25,0.8,1.25,1.54v3.64
		c0,0.87-0.69,1.57-1.55,1.57h-59.08c1.94-0.89,3.65-2.03,5.11-3.44c2.09-2,3.69-4.58,4.8-7.73c1.11-3.14,1.67-6.9,1.67-11.24
		c0-4.02-0.83-7.35-1.67-10.27C187,87.26,181,85.25,181,85.25s5-4.03,6.01-8.23c0.59-2.45,1.46-5.17,1.46-8.56
		c0-4.7-0.69-8.49-2.07-11.36c-1.38-2.87-3.28-5.08-5.71-6.64c-1.64-1.05-3.44-1.87-5.4-2.46h98.93
		C276.11,48,276.69,50.62,274.99,51.45z"/>
	<g class="st0">
		<path class="st8" d="M86.94,46.48l-4.95,48.31l-6.47-48.21H63.5L57.33,95.1l-4.85-48.62H37.13l9.9,83.44h15.96l6.57-50.37
			l6.97,50.37h15.76l9.8-83.44H86.94z"/>
		<path class="st8" d="M121.49,117.45V92.53h14.25V79.75h-14.25v-20.7h18.69V46.48H103.4v83.44h36.98v-12.47H121.49z"/>
		<path class="st8" d="M186.06,94.44c-1.07-2.7-2.63-4.86-4.7-6.47s-4.62-2.62-7.65-3.01c2.39-0.46,4.44-1.35,6.15-2.67
			c1.71-1.32,3.03-3.08,3.97-5.29c0.94-2.2,1.41-4.92,1.41-8.14c0-4.48-0.67-8.09-1.99-10.82s-3.15-4.84-5.47-6.32
			c-2.33-1.48-4.99-2.48-7.99-3.01c-2.07-0.36-4.22-0.6-6.45-0.71h11.95c-0.94-0.29-1.92-0.52-2.93-0.7
			c-3.13-0.55-6.45-0.82-9.95-0.82h-21.32v83.44h25.16c3.97,0,7.49-0.48,10.56-1.44c0.91-0.29,1.78-0.62,2.61-1.01H170
			c1.43-0.22,2.78-0.53,4.05-0.93c2.94-0.92,5.41-2.34,7.41-4.25c2-1.91,3.53-4.36,4.6-7.36c1.06-2.99,1.6-6.57,1.6-10.72
			C187.66,100.4,187.12,97.14,186.06,94.44z M159.17,58.84h3.14c2.29,0,4.19,0.38,5.7,1.13c1.52,0.76,2.66,1.88,3.44,3.35
			c0.77,1.48,1.16,3.32,1.16,5.51c0,2.34-0.25,4.33-0.76,5.98c-0.5,1.65-1.46,2.9-2.88,3.76c-1.41,0.86-3.5,1.28-6.26,1.28h-3.54
			V58.84z M171.25,113.95c-1.52,2.06-4.26,3.09-8.24,3.09h-3.84V92.01h3.74c2.63,0,4.72,0.43,6.27,1.29s2.66,2.21,3.33,4.07
			c0.67,1.85,1.01,4.36,1.01,7.52C173.52,108.87,172.76,111.89,171.25,113.95z"/>
	</g>
	<g class="st0">
		<path class="st9" d="M273.22,48l-148.61,0c-1.53,0-2.77,1.25-2.77,2.78v7.3c3.86,4.77,29.23,8.29,28.79,20.64l0.02,1.96
			c0.02,1.92,1,3.7,2.62,4.73l12.87,8.22c2,1.28,3.24,3.47,3.3,5.84l0.07,2.64c0.02,0.63-0.36,1.21-0.95,1.44l-17.13,6.85
			c-1,0.4-1.66,1.37-1.66,2.45v0.01c0,3.56-2.55,6.61-6.05,7.24l-3.7,0.67c-0.74,0.13-1.28,0.78-1.28,1.53v3.6
			c0,0.86,0.7,1.56,1.56,1.56h97.22c0.86,0,1.56-0.7,1.56-1.56v-3.62c0-0.74-0.52-1.38-1.25-1.53l-2.77-0.55
			c-3.44-0.69-5.92-3.71-5.92-7.22v-0.14c0-1.07-0.65-2.04-1.65-2.44l-16.91-6.85c-0.58-0.24-0.96-0.81-0.94-1.44l0.07-2.64
			c0.05-1.81,5.73-12.85,8.44-18.02c0.9-1.71,2.44-2.97,4.29-3.52c5.76-1.68,18.51-5.41,23.03-6.7c0.94-0.27,1.83-0.7,2.63-1.27
			l25.91-18.54C275.69,50.6,275.11,48,273.22,48z"/>
	</g>
	<g class="st0">
		<path class="st6" d="M273.99,51.43l-25.91,18.55c-0.8,0.57-1.69,1-2.63,1.27c-4.52,1.29-17.28,5.02-23.03,6.7
			c-1.85,0.55-3.4,1.81-4.29,3.52c-2.72,5.17-8.4,16.21-8.45,18.02l-0.07,2.64c-0.01,0.63,0.37,1.2,0.95,1.44l16.91,6.84
			c1,0.41,1.65,1.37,1.65,2.45v0.13c0,3.51,2.48,6.53,5.92,7.22l2.76,0.55c0.73,0.15,1.25,0.79,1.25,1.53v3.04
			c0,1.18-0.96,2.14-2.14,2.14h-91.8c-0.58,0-0.81-0.76-0.32-1.07c1.06-0.67,2.03-1.44,2.91-2.31c2.03-2.01,3.59-4.58,4.68-7.73
			c0.67-1.95,1.13-4.12,1.38-6.54c0.02-0.21,0.16-0.4,0.36-0.48l14.43-5.78c0.59-0.23,0.97-0.81,0.95-1.44l-0.07-2.64
			c-0.06-2.38-1.29-4.56-3.29-5.84l-12.87-8.22c-1.62-1.04-2.61-2.82-2.63-4.74l-0.01-1.95c0.03-0.95,0.91-7.6,0.91-10.74
			c0-4.71-0.67-8.49-2.02-11.36c-1.34-2.87-3.2-5.08-5.56-6.64c-0.49-0.32-0.99-0.62-1.51-0.9c-0.53-0.28-0.33-1.09,0.27-1.09h130.5
			C275.11,48,275.69,50.6,273.99,51.43z"/>
	</g>
	<g>
		<path class="st14" d="M273.99,51.43l-25.91,18.55c-0.8,0.57-1.69,1-2.63,1.27c-4.52,1.29-17.28,5.02-23.03,6.7
			c-1.85,0.55-3.4,1.81-4.29,3.52c-2.72,5.17-8.4,16.21-8.45,18.02l-0.07,2.64c-0.01,0.63,0.37,1.2,0.95,1.44l16.91,6.84
			c1,0.41,1.65,1.37,1.65,2.45v0.13c0,3.51,2.48,6.53,5.92,7.22l2.76,0.55c0.73,0.15,1.25,0.79,1.25,1.53v3.04
			c0,1.18-0.96,2.14-2.14,2.14h-91.8c-0.58,0-0.81-0.76-0.32-1.07c1.06-0.67,2.03-1.44,2.91-2.31c2.03-2.01,3.59-4.58,4.68-7.73
			c0.67-1.95,1.13-4.12,1.38-6.54c0.02-0.21,0.16-0.4,0.36-0.48l14.43-5.78c0.59-0.23,0.97-0.81,0.95-1.44l-0.07-2.64
			c-0.06-2.38-1.29-4.56-3.29-5.84l-12.87-8.22c-1.62-1.04-2.61-2.82-2.63-4.74l-0.01-1.95c0.03-0.95,0.91-7.6,0.91-10.74
			c0-4.71-0.67-8.49-2.02-11.36c-1.34-2.87-3.2-5.08-5.56-6.64c-0.49-0.32-0.99-0.62-1.51-0.9c-0.53-0.28-0.33-1.09,0.27-1.09h130.5
			C275.11,48,275.69,50.6,273.99,51.43z"/>
	</g>
	<g>
		<path class="st14" d="M9.62,127.92l-9.49-80h14.72l4.65,46.62l5.91-46.52h11.53l6.2,46.22l4.75-46.32h14.53l-9.4,80H37.91
			l-6.68-48.3l-6.3,48.3H9.62z"/>
		<path class="st14" d="M65.67,127.92v-80h35.26v12.05H83.01v19.85h13.66v12.25H83.01v23.9h18.11v11.95H65.67z"/>
		<path class="st14" d="M103.8,127.92v-80h20.44c3.36,0,6.54,0.26,9.54,0.79c3,0.53,5.67,1.53,7.99,3.01
			c2.32,1.48,4.15,3.59,5.47,6.32c1.32,2.73,1.99,6.34,1.99,10.81c0,3.23-0.47,5.94-1.4,8.15c-0.94,2.21-2.26,3.97-3.97,5.28
			c-1.71,1.32-3.76,2.21-6.15,2.67c3.04,0.4,5.59,1.4,7.65,3.01c2.07,1.61,3.63,3.77,4.7,6.47c1.07,2.7,1.6,5.96,1.6,9.78
			c0,4.15-0.53,7.72-1.6,10.72s-2.6,5.45-4.6,7.36c-2,1.91-4.47,3.33-7.41,4.25c-2.94,0.92-6.31,1.38-10.12,1.38H103.8z
			 M121.14,79.92h3.39c2.65,0,4.65-0.41,6.01-1.23c1.36-0.82,2.28-2.02,2.76-3.6s0.73-3.49,0.73-5.73c0-2.11-0.37-3.87-1.11-5.28
			c-0.74-1.42-1.84-2.48-3.29-3.21c-1.45-0.72-3.28-1.09-5.47-1.09h-3V79.92z M121.14,115.57h3.68c3.81,0,6.44-0.99,7.89-2.96
			c1.45-1.98,2.18-4.87,2.18-8.69c0-3.03-0.32-5.43-0.97-7.21c-0.65-1.78-1.71-3.08-3.2-3.9c-1.49-0.82-3.49-1.23-6.01-1.23h-3.58
			V115.57z"/>
	</g>
</g>
<g id="Layer_8" class="st0">
	<g class="st6">
		<path d="M234.31,5.51l9.87,13.3c0.26,0.22,0.39,0.56,0.32,0.89l-1.22,6.28c-0.1,0.5,0.23,0.99,0.73,1.09l0,0
			c0.5,0.1,0.83,0.58,0.73,1.09l-1.51,7.73c-0.1,0.5-0.58,0.83-1.09,0.73h0c-0.5-0.1-0.99,0.23-1.09,0.73l-1.86,9.55
			c-0.1,0.5-0.58,0.83-1.09,0.73l-12.28-2.39c-0.5-0.1-0.83-0.58-0.73-1.09l1.86-9.55c0.1-0.5-0.23-0.99-0.73-1.09l-37.29-7.27
			c-0.5-0.1-0.83-0.58-0.73-1.09l1.51-7.73c0.1-0.5,0.58-0.83,1.09-0.73l37.29,7.27c0.5,0.1,0.99-0.23,1.09-0.73l3.41-17.46
			C232.75,4.92,233.9,4.74,234.31,5.51z"/>
	</g>
</g>
<g id="Layer_8_copy">
	<g>
		<path class="st14" d="M246.33,2.04l5.7,15.55c0.19,0.28,0.21,0.65,0.06,0.95l-2.95,5.67c-0.24,0.45-0.06,1.01,0.39,1.25h0
			c0.45,0.24,0.63,0.8,0.39,1.25l-3.63,6.99c-0.24,0.45-0.8,0.63-1.25,0.39l0,0c-0.45-0.24-1.01-0.06-1.25,0.39l-4.49,8.63
			c-0.24,0.45-0.8,0.63-1.25,0.39l-11.1-5.77c-0.45-0.24-0.63-0.8-0.39-1.25l4.49-8.63c0.24-0.45,0.06-1.01-0.39-1.25L196.95,9.09
			c-0.45-0.24-0.63-0.8-0.39-1.25l3.63-6.99c0.24-0.45,0.8-0.63,1.25-0.39l33.71,17.52c0.45,0.24,1.01,0.06,1.25-0.39L244.6,1.8
			C245,1.03,246.15,1.19,246.33,2.04z"/>
	</g>
	<polygon class="st14" points="239,47 249,35 251,38 	"/>
	<polygon class="st14" points="244.33,47 251,42.47 252.19,43.62 	"/>
	<polygon class="st14" points="224.32,38.33 236,46 223.27,41 	"/>
	<polygon class="st14" points="231.6,46 224.8,44.73 224.8,46 	"/>
</g>
<g id="Layer_4">
	<line class="st15" x1="204" y1="39" x2="190" y2="25"/>
	<line class="st15" x1="212" y1="40" x2="216" y2="28"/>
</g>
</svg>
